<?xml version="1.0" standalone="no"?>
<!DOCTYPE svg PUBLIC "-//W3C//DTD SVG 20010904//EN"
 "http://www.w3.org/TR/2001/REC-SVG-20010904/DTD/svg10.dtd">
<svg version="1.0" xmlns="http://www.w3.org/2000/svg"
 width="512.000000pt" height="512.000000pt" viewBox="0 0 512.000000 512.000000"
 preserveAspectRatio="xMidYMid meet">

<g transform="translate(0.000000,512.000000) scale(0.100000,-0.100000)"
fill="#000000" stroke="none">
<path d="M1087 4749 c-20 -5 -54 -18 -75 -28 -55 -29 -978 -957 -997 -1003
-41 -100 12 -218 117 -262 44 -19 78 -20 133 -5 34 9 91 61 352 322 l313 312
2 -1860 3 -1860 805 -3 c558 -1 821 1 858 9 62 12 126 63 149 116 30 73 9 177
-49 230 -57 54 -47 53 -728 53 l-630 0 0 1657 0 1658 313 -312 c261 -261 318
-313 352 -322 57 -15 94 -13 141 8 101 46 149 161 109 259 -22 52 -943 975
-1005 1006 -54 28 -112 37 -163 25z" fill="#fff" />
<path d="M2555 4751 c-83 -21 -137 -75 -156 -157 -15 -63 0 -121 44 -171 66
-75 38 -73 725 -73 l612 0 0 -1452 0 -1453 -302 302 c-167 165 -316 308 -333
316 -146 70 -311 -44 -292 -204 4 -28 15 -65 26 -82 11 -18 228 -239 483 -493
504 -502 511 -508 618 -509 118 0 110 -7 623 504 483 481 517 521 517 595 0
119 -88 207 -205 207 -34 0 -67 -7 -91 -20 -22 -11 -172 -153 -334 -315 l-295
-296 -5 1652 -5 1653 -800 2 c-440 0 -813 -2 -830 -6z" fill="#fff"/>
</g>
</svg>
